<svg width="15" height="15" viewBox="0 0 15 15" version="1.1" xmlns="http://www.w3.org/2000/svg" xmlns:xlink="http://www.w3.org/1999/xlink">
<g id="Canvas" fill="none">
<g id="Group 2">
<g id="Group">
<g id="Group_2">
<g id="Vector">
<path d="M 10.947 0L 4.05296 0C 1.81816 0 0 1.81816 0 4.05296L 0 10.947C 0 13.1818 1.81816 15 4.05296 15L 10.947 15C 13.1818 15 15 13.1818 15 10.947L 15 4.05296C 15 1.81816 13.1818 0 10.947 0ZM 13.7882 10.947C 13.7882 12.5136 12.5137 13.7882 10.947 13.7882L 4.05296 13.7882C 2.48637 13.7882 1.21184 12.5137 1.21184 10.947L 1.21184 4.05296C 1.21184 2.48637 2.48634 1.21184 4.05296 1.21184L 10.947 1.21184C 12.5136 1.21184 13.7882 2.48634 13.7882 4.05296L 13.7882 10.947Z" fill="white"/>
</g>
</g>
</g>
<g id="Group_3">
<g id="Group_4">
<g id="Vector_2">
<path d="M 6.69145 2.87021C 6.58481 2.15106 6.25671 1.49926 5.74264 0.985188C 5.22857 0.471145 4.57677 0.14302 3.85765 0.0364087C 3.53023 -0.0121362 3.19827 -0.0121362 2.87087 0.0364087C 1.98212 0.168215 1.19793 0.638196 0.662708 1.35981C 0.127484 2.08142 -0.094733 2.96829 0.0370736 3.85698C 0.16888 4.74571 0.638861 5.5299 1.36047 6.06515C 1.94629 6.49965 2.64092 6.72781 3.35714 6.72781C 3.52317 6.72781 3.69039 6.71557 3.85762 6.69075C 4.74637 6.55895 5.53056 6.08897 6.06579 5.36736C 6.60104 4.64577 6.82326 3.75893 6.69145 2.87021ZM 3.67988 5.49201C 3.11137 5.57645 2.54404 5.43421 2.08241 5.09182C 1.62078 4.74943 1.32013 4.24775 1.23584 3.67924C 1.15153 3.11074 1.29365 2.5434 1.63604 2.08177C 1.97846 1.62014 2.48011 1.31949 3.04865 1.23518C 3.15335 1.21965 3.25879 1.21189 3.36423 1.21189C 3.46967 1.21189 3.57514 1.21965 3.67985 1.23521C 4.62412 1.37522 5.35264 2.10371 5.49268 3.04801C 5.6667 4.22158 4.85351 5.31799 3.67988 5.49201Z" transform="translate(4.16557 4.10657)" fill="white"/>
</g>
</g>
</g>
<g id="Group_5">
<g id="Group_6">
<g id="Vector_3">
<path d="M 1.03441 0.17748C 0.921563 0.0646581 0.765381 -6.61611e-08 0.605948 -6.61611e-08C 0.446514 -6.61611e-08 0.290332 0.0646288 0.177481 0.17748C 0.0646585 0.290332 -7.86781e-08 0.44625 -7.86781e-08 0.605947C -7.86781e-08 0.765644 0.0646585 0.921562 0.177481 1.03441C 0.290332 1.14724 0.446514 1.21189 0.605948 1.21189C 0.765381 1.21189 0.921563 1.14727 1.03441 1.03441C 1.14724 0.921562 1.21189 0.765381 1.21189 0.605947C 1.21189 0.446484 1.14724 0.290303 1.03441 0.17748Z" transform="translate(10.6858 3.10229)" fill="white"/>
</g>
</g>
</g>
</g>
</g>
</svg>

