<svg width="15" height="15" xmlns="http://www.w3.org/2000/svg"><g fill="#fff"><path d="M10.947 0H4.053A4.058 4.058 0 0 0 0 4.053v6.894A4.058 4.058 0 0 0 4.053 15h6.894A4.058 4.058 0 0 0 15 10.947V4.053A4.058 4.058 0 0 0 10.947 0zm2.841 10.947a2.844 2.844 0 0 1-2.841 2.841H4.053a2.844 2.844 0 0 1-2.841-2.841V4.053a2.844 2.844 0 0 1 2.841-2.841h6.894a2.844 2.844 0 0 1 2.841 2.841v6.894z"/><path d="M10.857 6.977a3.34 3.34 0 0 0-.949-1.885 3.361 3.361 0 0 0-5.08.375 3.342 3.342 0 0 0-.625 2.497 3.342 3.342 0 0 0 1.323 2.208 3.338 3.338 0 0 0 2.497.625 3.342 3.342 0 0 0 2.208-1.323 3.341 3.341 0 0 0 .626-2.497zM7.845 9.599a2.137 2.137 0 0 1-1.597-.4 2.138 2.138 0 0 1-.847-1.413 2.138 2.138 0 0 1 .4-1.598 2.138 2.138 0 0 1 2.044-.846 2.14 2.14 0 0 1 1.813 1.813 2.154 2.154 0 0 1-1.813 2.444zM11.72 3.28a.61.61 0 0 0-1.034.428.61.61 0 0 0 .606.606.61.61 0 0 0 .606-.606.61.61 0 0 0-.178-.428z"/></g></svg>