<svg width="16" height="9" xmlns="http://www.w3.org/2000/svg"><path fill-rule="evenodd" clip-rule="evenodd" d="M13.77 5.723c.531.515 1.091 1 1.567 1.566.21.252.41.512.562.805.216.415.02.873-.355.898l-2.33-.002c-.602.05-1.082-.19-1.485-.6-.322-.326-.621-.674-.932-1.011a2.202 2.202 0 0 0-.42-.37c-.317-.206-.593-.143-.775.187-.186.335-.228.707-.246 1.08-.025.546-.19.69-.742.714-1.178.056-2.296-.122-3.335-.712-.916-.521-1.626-1.256-2.245-2.089C1.831 4.57.91 2.787.081.956-.106.543.03.322.489.314a62 62 0 0 1 2.282 0c.309.004.513.18.633.47A14.034 14.034 0 0 0 4.95 3.633c.169.236.34.472.585.638.27.184.476.123.603-.176.08-.19.116-.394.134-.598.06-.699.068-1.397-.037-2.094C6.17.968 5.923.687 5.487.604c-.223-.041-.19-.124-.082-.25C5.592.136 5.768 0 6.12 0h2.634c.415.081.507.267.564.681L9.32 3.59c-.005.16.08.637.372.743.232.076.386-.11.526-.256.63-.665 1.08-1.452 1.483-2.266.178-.358.332-.73.48-1.101.11-.276.284-.412.596-.406l2.535.002c.075 0 .152.002.224.014.428.072.545.255.413.67-.208.65-.613 1.192-1.008 1.737-.423.582-.875 1.143-1.295 1.728-.385.534-.354.804.124 1.268z" fill="#72AB33"/></svg>